<mxfile host="app.diagrams.net" modified="2023-09-26T11:59:24.580Z" agent="Mozilla/5.0 (Macintosh; Intel Mac OS X 10_15_7) AppleWebKit/537.36 (KHTML, like Gecko) Chrome/116.0.0.0 Safari/537.36" version="21.2.9" etag="jrIfFt7PrxUL_dh72Xzu" type="github">
  <diagram name="Page-1" id="gB24IeF-U_Kl7xra8Jkw">
    <mxGraphModel>
      <root>
        <mxCell id="0" />
        <mxCell id="1" parent="0" />
      </root>
    </mxGraphModel>
  </diagram>
</mxfile>
